<svg xmlns="http://www.w3.org/2000/svg" version="1.1" xmlns:xlink="http://www.w3.org/1999/xlink" xmlns:svgjs="http://svgjs.dev/svgjs" viewBox="0 0 1422 800"><circle r="7.5" cx="960" cy="432" fill="hsl(262, 75%, 70%)" opacity="0.89"></circle><circle r="15.5" cx="1391" cy="77" fill="hsl(313, 75%, 70%)" opacity="0.83"></circle><circle r="14.5" cx="262" cy="679" fill="hsl(297, 75%, 70%)" opacity="0.63"></circle><circle r="17.5" cx="1395" cy="567" fill="hsl(325, 75%, 70%)" opacity="0.79"></circle><circle r="9.5" cx="796" cy="237" fill="hsl(248, 75%, 70%)" opacity="0.97"></circle><circle r="12.5" cx="1266" cy="80" fill="hsl(313, 75%, 70%)" opacity="0.56"></circle><circle r="6.5" cx="571" cy="682" fill="hsl(254, 75%, 70%)" opacity="0.84"></circle><circle r="15" cx="285" cy="116" fill="hsl(290, 75%, 70%)" opacity="0.63"></circle><circle r="12" cx="1070" cy="775" fill="hsl(286, 75%, 70%)" opacity="0.77"></circle><circle r="10" cx="572" cy="328" fill="hsl(254, 75%, 70%)" opacity="0.96"></circle><circle r="7.5" cx="453" cy="196" fill="hsl(262, 75%, 70%)" opacity="0.39"></circle><circle r="8" cx="830" cy="642" fill="hsl(249, 75%, 70%)" opacity="0.46"></circle><circle r="11" cx="575" cy="440" fill="hsl(254, 75%, 70%)" opacity="0.90"></circle><circle r="9.5" cx="519" cy="291" fill="hsl(256, 75%, 70%)" opacity="0.58"></circle><circle r="9" cx="437" cy="565" fill="hsl(265, 75%, 70%)" opacity="0.26"></circle><circle r="6.5" cx="11" cy="174" fill="hsl(322, 75%, 70%)" opacity="0.89"></circle><circle r="10" cx="1119" cy="20" fill="hsl(274, 75%, 70%)" opacity="0.12"></circle><circle r="15.5" cx="169" cy="387" fill="hsl(313, 75%, 70%)" opacity="0.47"></circle><circle r="8.5" cx="311" cy="488" fill="hsl(288, 75%, 70%)" opacity="0.50"></circle><circle r="8.5" cx="319" cy="89" fill="hsl(279, 75%, 70%)" opacity="0.47"></circle><circle r="10" cx="912" cy="530" fill="hsl(256, 75%, 70%)" opacity="0.80"></circle><circle r="11.5" cx="1404" cy="342" fill="hsl(324, 75%, 70%)" opacity="0.17"></circle><circle r="11" cx="1272" cy="123" fill="hsl(323, 75%, 70%)" opacity="0.68"></circle><circle r="16.5" cx="1153" cy="576" fill="hsl(302, 75%, 70%)" opacity="0.45"></circle><circle r="9.5" cx="563" cy="101" fill="hsl(242, 75%, 70%)" opacity="0.47"></circle><circle r="7.5" cx="781" cy="471" fill="hsl(248, 75%, 70%)" opacity="0.31"></circle><circle r="7.5" cx="92" cy="19" fill="hsl(273, 75%, 70%)" opacity="0.75"></circle><circle r="14" cx="369" cy="324" fill="hsl(275, 75%, 70%)" opacity="0.57"></circle><circle r="16.5" cx="220" cy="637" fill="hsl(305, 75%, 70%)" opacity="0.37"></circle><circle r="6.5" cx="667" cy="545" fill="hsl(250, 75%, 70%)" opacity="0.68"></circle><circle r="14" cx="1127" cy="626" fill="hsl(297, 75%, 70%)" opacity="0.96"></circle><circle r="14.5" cx="1180" cy="173" fill="hsl(311, 75%, 70%)" opacity="0.16"></circle><circle r="8.5" cx="1068" cy="487" fill="hsl(286, 75%, 70%)" opacity="0.45"></circle><circle r="8" cx="483" cy="209" fill="hsl(260, 75%, 70%)" opacity="0.71"></circle><circle r="10.5" cx="999" cy="232" fill="hsl(266, 75%, 70%)" opacity="0.34"></circle><circle r="10" cx="871" cy="631" fill="hsl(251, 75%, 70%)" opacity="0.74"></circle><circle r="16" cx="1316" cy="700" fill="hsl(325, 75%, 70%)" opacity="0.11"></circle><circle r="13.5" cx="42" cy="321" fill="hsl(325, 75%, 70%)" opacity="0.13"></circle><circle r="9" cx="110" cy="98" fill="hsl(303, 75%, 70%)" opacity="0.91"></circle><circle r="11" cx="250" cy="280" fill="hsl(297, 75%, 70%)" opacity="0.81"></circle><circle r="13" cx="315" cy="358" fill="hsl(283, 75%, 70%)" opacity="0.82"></circle><circle r="11.5" cx="637" cy="588" fill="hsl(251, 75%, 70%)" opacity="0.98"></circle><circle r="9" cx="1084" cy="696" fill="hsl(286, 75%, 70%)" opacity="0.24"></circle><circle r="9.5" cx="621" cy="361" fill="hsl(252, 75%, 70%)" opacity="0.16"></circle><circle r="13" cx="391" cy="29" fill="hsl(265, 75%, 70%)" opacity="0.45"></circle><circle r="8" cx="803" cy="531" fill="hsl(248, 75%, 70%)" opacity="0.22"></circle><circle r="13.5" cx="232" cy="473" fill="hsl(301, 75%, 70%)" opacity="0.99"></circle><circle r="9" cx="670" cy="83" fill="hsl(226, 75%, 70%)" opacity="0.77"></circle><circle r="11.5" cx="1134" cy="176" fill="hsl(301, 75%, 70%)" opacity="0.17"></circle><circle r="11.5" cx="984" cy="457" fill="hsl(266, 75%, 70%)" opacity="0.61"></circle><circle r="7.5" cx="381" cy="76" fill="hsl(269, 75%, 70%)" opacity="0.71"></circle><circle r="7.5" cx="944" cy="297" fill="hsl(259, 75%, 70%)" opacity="0.23"></circle><circle r="10.5" cx="142" cy="137" fill="hsl(310, 75%, 70%)" opacity="0.19"></circle><circle r="13.5" cx="241" cy="533" fill="hsl(301, 75%, 70%)" opacity="0.90"></circle><circle r="10.5" cx="715" cy="134" fill="hsl(236, 75%, 70%)" opacity="0.14"></circle><circle r="9" cx="112" cy="734" fill="hsl(319, 75%, 70%)" opacity="0.28"></circle><circle r="11" cx="1019" cy="151" fill="hsl(263, 75%, 70%)" opacity="0.70"></circle><circle r="8" cx="1099" cy="318" fill="hsl(291, 75%, 70%)" opacity="0.94"></circle><circle r="13" cx="808" cy="288" fill="hsl(248, 75%, 70%)" opacity="0.31"></circle><circle r="8.5" cx="710" cy="241" fill="hsl(249, 75%, 70%)" opacity="0.91"></circle><circle r="15" cx="146" cy="238" fill="hsl(316, 75%, 70%)" opacity="0.75"></circle><circle r="10.5" cx="787" cy="139" fill="hsl(234, 75%, 70%)" opacity="0.57"></circle><circle r="8.5" cx="668" cy="250" fill="hsl(250, 75%, 70%)" opacity="0.15"></circle><circle r="11.5" cx="597" cy="168" fill="hsl(249, 75%, 70%)" opacity="0.54"></circle><circle r="8.5" cx="658" cy="373" fill="hsl(251, 75%, 70%)" opacity="0.78"></circle><circle r="9.5" cx="506" cy="239" fill="hsl(258, 75%, 70%)" opacity="0.52"></circle><circle r="16" cx="224" cy="237" fill="hsl(301, 75%, 70%)" opacity="0.82"></circle><circle r="9" cx="1222" cy="139" fill="hsl(319, 75%, 70%)" opacity="0.62"></circle><circle r="17.5" cx="276" cy="37" fill="hsl(276, 75%, 70%)" opacity="0.42"></circle><circle r="12" cx="476" cy="774" fill="hsl(260, 75%, 70%)" opacity="0.32"></circle><circle r="16.5" cx="1225" cy="194" fill="hsl(318, 75%, 70%)" opacity="0.90"></circle><circle r="10" cx="1070" cy="327" fill="hsl(286, 75%, 70%)" opacity="0.19"></circle><circle r="11" cx="313" cy="582" fill="hsl(283, 75%, 70%)" opacity="0.60"></circle><circle r="10.5" cx="469" cy="673" fill="hsl(260, 75%, 70%)" opacity="0.33"></circle><circle r="12.5" cx="1010" cy="388" fill="hsl(271, 75%, 70%)" opacity="0.57"></circle><circle r="16.5" cx="332" cy="176" fill="hsl(284, 75%, 70%)" opacity="0.97"></circle><circle r="10.5" cx="136" cy="752" fill="hsl(316, 75%, 70%)" opacity="0.99"></circle><circle r="9" cx="975" cy="640" fill="hsl(262, 75%, 70%)" opacity="0.63"></circle><circle r="9.5" cx="432" cy="125" fill="hsl(264, 75%, 70%)" opacity="0.69"></circle><circle r="13" cx="1191" cy="616" fill="hsl(311, 75%, 70%)" opacity="0.96"></circle><circle r="11" cx="523" cy="160" fill="hsl(254, 75%, 70%)" opacity="0.67"></circle><circle r="10" cx="336" cy="20" fill="hsl(267, 75%, 70%)" opacity="0.62"></circle><circle r="10.5" cx="1044" cy="102" fill="hsl(268, 75%, 70%)" opacity="0.78"></circle><circle r="10" cx="67" cy="726" fill="hsl(323, 75%, 70%)" opacity="0.44"></circle><circle r="9.5" cx="448" cy="453" fill="hsl(262, 75%, 70%)" opacity="0.47"></circle><circle r="8.5" cx="598" cy="287" fill="hsl(253, 75%, 70%)" opacity="0.17"></circle><circle r="9" cx="744" cy="95" fill="hsl(225, 75%, 70%)" opacity="0.15"></circle><circle r="13.5" cx="62" cy="174" fill="hsl(321, 75%, 70%)" opacity="0.82"></circle><circle r="23.5" cx="1289" cy="408" fill="hsl(323, 75%, 70%)" opacity="0.62"></circle><circle r="7.5" cx="702" cy="513" fill="hsl(249, 75%, 70%)" opacity="0.76"></circle><circle r="21" cx="75" cy="581" fill="hsl(323, 75%, 70%)" opacity="0.59"></circle><circle r="17.5" cx="1309" cy="317" fill="hsl(324, 75%, 70%)" opacity="0.65"></circle><circle r="10" cx="590" cy="538" fill="hsl(253, 75%, 70%)" opacity="0.96"></circle><circle r="11.5" cx="878" cy="277" fill="hsl(251, 75%, 70%)" opacity="0.48"></circle><circle r="14" cx="214" cy="178" fill="hsl(305, 75%, 70%)" opacity="0.61"></circle><circle r="8" cx="1332" cy="15" fill="hsl(293, 75%, 70%)" opacity="0.16"></circle><circle r="13" cx="1019" cy="696" fill="hsl(271, 75%, 70%)" opacity="0.87"></circle><circle r="13.5" cx="200" cy="687" fill="hsl(305, 75%, 70%)" opacity="0.80"></circle><circle r="10" cx="18" cy="133" fill="hsl(311, 75%, 70%)" opacity="1.00"></circle><circle r="11" cx="71" cy="82" fill="hsl(297, 75%, 70%)" opacity="0.52"></circle><circle r="10" cx="1137" cy="265" fill="hsl(302, 75%, 70%)" opacity="0.84"></circle><circle r="20" cx="1202" cy="254" fill="hsl(314, 75%, 70%)" opacity="0.76"></circle><circle r="15.5" cx="31" cy="701" fill="hsl(325, 75%, 70%)" opacity="0.63"></circle><circle r="9.5" cx="561" cy="647" fill="hsl(254, 75%, 70%)" opacity="0.71"></circle><circle r="17.5" cx="1149" cy="517" fill="hsl(302, 75%, 70%)" opacity="0.43"></circle><circle r="11.5" cx="1350" cy="50" fill="hsl(309, 75%, 70%)" opacity="0.48"></circle><circle r="15" cx="120" cy="359" fill="hsl(319, 75%, 70%)" opacity="0.83"></circle><circle r="13" cx="1160" cy="219" fill="hsl(306, 75%, 70%)" opacity="0.60"></circle><circle r="17.5" cx="1335" cy="533" fill="hsl(326, 75%, 70%)" opacity="0.15"></circle><circle r="8.5" cx="944" cy="259" fill="hsl(259, 75%, 70%)" opacity="0.97"></circle><circle r="13.5" cx="39" cy="410" fill="hsl(325, 75%, 70%)" opacity="0.62"></circle><circle r="10" cx="591" cy="389" fill="hsl(253, 75%, 70%)" opacity="0.91"></circle><circle r="10.5" cx="655" cy="652" fill="hsl(251, 75%, 70%)" opacity="0.14"></circle><circle r="13" cx="640" cy="313" fill="hsl(251, 75%, 70%)" opacity="0.18"></circle><circle r="11.5" cx="80" cy="358" fill="hsl(323, 75%, 70%)" opacity="0.63"></circle><circle r="13" cx="1087" cy="372" fill="hsl(286, 75%, 70%)" opacity="0.99"></circle><circle r="9" cx="447" cy="308" fill="hsl(262, 75%, 70%)" opacity="0.51"></circle><circle r="6.5" cx="960" cy="196" fill="hsl(262, 75%, 70%)" opacity="0.58"></circle><circle r="13.5" cx="1305" cy="60" fill="hsl(310, 75%, 70%)" opacity="0.76"></circle><circle r="17.5" cx="1258" cy="519" fill="hsl(320, 75%, 70%)" opacity="0.35"></circle><circle r="9" cx="1117" cy="232" fill="hsl(297, 75%, 70%)" opacity="0.87"></circle><circle r="9.5" cx="942" cy="612" fill="hsl(259, 75%, 70%)" opacity="0.61"></circle><circle r="6.5" cx="954" cy="226" fill="hsl(259, 75%, 70%)" opacity="0.39"></circle><circle r="7" cx="1039" cy="205" fill="hsl(276, 75%, 70%)" opacity="0.62"></circle><circle r="10.5" cx="620" cy="681" fill="hsl(252, 75%, 70%)" opacity="0.44"></circle><circle r="9" cx="733" cy="624" fill="hsl(249, 75%, 70%)" opacity="0.58"></circle><circle r="15.5" cx="1312" cy="119" fill="hsl(325, 75%, 70%)" opacity="1.00"></circle><circle r="9" cx="833" cy="105" fill="hsl(225, 75%, 70%)" opacity="0.59"></circle><circle r="8.5" cx="723" cy="578" fill="hsl(249, 75%, 70%)" opacity="0.74"></circle><circle r="11" cx="1147" cy="685" fill="hsl(302, 75%, 70%)" opacity="0.87"></circle><circle r="11.5" cx="173" cy="776" fill="hsl(313, 75%, 70%)" opacity="0.92"></circle><circle r="18.5" cx="1213" cy="562" fill="hsl(314, 75%, 70%)" opacity="0.24"></circle><circle r="10.5" cx="552" cy="249" fill="hsl(255, 75%, 70%)" opacity="0.92"></circle><circle r="19" cx="1339" cy="242" fill="hsl(326, 75%, 70%)" opacity="0.89"></circle><circle r="8.5" cx="1111" cy="294" fill="hsl(297, 75%, 70%)" opacity="0.91"></circle><circle r="7" cx="947" cy="33" fill="hsl(231, 75%, 70%)" opacity="0.28"></circle><circle r="8" cx="833" cy="762" fill="hsl(249, 75%, 70%)" opacity="0.92"></circle><circle r="11.5" cx="81" cy="782" fill="hsl(323, 75%, 70%)" opacity="0.46"></circle><circle r="14" cx="1061" cy="584" fill="hsl(281, 75%, 70%)" opacity="0.91"></circle><circle r="11" cx="163" cy="686" fill="hsl(313, 75%, 70%)" opacity="0.14"></circle><circle r="9.5" cx="211" cy="19" fill="hsl(272, 75%, 70%)" opacity="0.42"></circle><circle r="10" cx="129" cy="784" fill="hsl(319, 75%, 70%)" opacity="0.44"></circle><circle r="10" cx="736" cy="40" fill="hsl(218, 75%, 70%)" opacity="0.72"></circle><circle r="12.5" cx="968" cy="715" fill="hsl(262, 75%, 70%)" opacity="0.89"></circle><circle r="11" cx="865" cy="545" fill="hsl(250, 75%, 70%)" opacity="0.48"></circle><circle r="11" cx="442" cy="607" fill="hsl(265, 75%, 70%)" opacity="0.83"></circle><circle r="11.5" cx="847" cy="395" fill="hsl(250, 75%, 70%)" opacity="0.71"></circle><circle r="9.5" cx="1173" cy="754" fill="hsl(306, 75%, 70%)" opacity="0.66"></circle><circle r="11.5" cx="215" cy="566" fill="hsl(305, 75%, 70%)" opacity="0.52"></circle><circle r="20" cx="1391" cy="664" fill="hsl(325, 75%, 70%)" opacity="0.19"></circle><circle r="13.5" cx="979" cy="571" fill="hsl(266, 75%, 70%)" opacity="0.43"></circle><circle r="14" cx="1363" cy="115" fill="hsl(324, 75%, 70%)" opacity="0.40"></circle><circle r="8.5" cx="872" cy="189" fill="hsl(251, 75%, 70%)" opacity="0.14"></circle><circle r="8.5" cx="688" cy="452" fill="hsl(250, 75%, 70%)" opacity="0.75"></circle><circle r="7" cx="719" cy="469" fill="hsl(249, 75%, 70%)" opacity="0.11"></circle><circle r="8.5" cx="1016" cy="751" fill="hsl(271, 75%, 70%)" opacity="0.86"></circle><circle r="8.5" cx="125" cy="709" fill="hsl(319, 75%, 70%)" opacity="0.93"></circle><circle r="20.5" cx="26" cy="765" fill="hsl(325, 75%, 70%)" opacity="0.67"></circle><circle r="11.5" cx="706" cy="189" fill="hsl(249, 75%, 70%)" opacity="0.78"></circle><circle r="10" cx="862" cy="493" fill="hsl(250, 75%, 70%)" opacity="0.31"></circle><circle r="19.5" cx="227" cy="413" fill="hsl(301, 75%, 70%)" opacity="0.23"></circle><circle r="13" cx="1337" cy="160" fill="hsl(327, 75%, 70%)" opacity="0.58"></circle><circle r="13" cx="1137" cy="125" fill="hsl(298, 75%, 70%)" opacity="0.13"></circle><circle r="21" cx="1390" cy="754" fill="hsl(325, 75%, 70%)" opacity="0.76"></circle><circle r="15" cx="1140" cy="453" fill="hsl(302, 75%, 70%)" opacity="0.99"></circle><circle r="11" cx="437" cy="498" fill="hsl(265, 75%, 70%)" opacity="0.53"></circle><circle r="18" cx="186" cy="278" fill="hsl(309, 75%, 70%)" opacity="0.65"></circle><circle r="10.5" cx="865" cy="736" fill="hsl(250, 75%, 70%)" opacity="0.33"></circle><circle r="21" cx="1345" cy="367" fill="hsl(326, 75%, 70%)" opacity="0.27"></circle><circle r="13.5" cx="662" cy="765" fill="hsl(251, 75%, 70%)" opacity="0.36"></circle><circle r="14.5" cx="132" cy="455" fill="hsl(319, 75%, 70%)" opacity="0.55"></circle><circle r="18" cx="113" cy="627" fill="hsl(319, 75%, 70%)" opacity="0.11"></circle><circle r="10" cx="759" cy="707" fill="hsl(248, 75%, 70%)" opacity="0.72"></circle><circle r="15" cx="336" cy="243" fill="hsl(279, 75%, 70%)" opacity="0.32"></circle><circle r="12" cx="867" cy="331" fill="hsl(251, 75%, 70%)" opacity="0.42"></circle><circle r="8.5" cx="602" cy="482" fill="hsl(252, 75%, 70%)" opacity="0.15"></circle><circle r="8.5" cx="589" cy="214" fill="hsl(253, 75%, 70%)" opacity="0.91"></circle><circle r="10" cx="1090" cy="186" fill="hsl(291, 75%, 70%)" opacity="0.51"></circle><circle r="12" cx="104" cy="165" fill="hsl(318, 75%, 70%)" opacity="0.75"></circle><circle r="14.5" cx="49" cy="278" fill="hsl(324, 75%, 70%)" opacity="0.30"></circle><circle r="9" cx="1069" cy="278" fill="hsl(286, 75%, 70%)" opacity="0.98"></circle><circle r="10" cx="1119" cy="722" fill="hsl(297, 75%, 70%)" opacity="0.25"></circle><circle r="12" cx="224" cy="779" fill="hsl(301, 75%, 70%)" opacity="0.66"></circle><circle r="6" cx="865" cy="786" fill="hsl(250, 75%, 70%)" opacity="0.60"></circle><circle r="12.5" cx="443" cy="361" fill="hsl(265, 75%, 70%)" opacity="0.36"></circle><circle r="12" cx="173" cy="736" fill="hsl(313, 75%, 70%)" opacity="0.89"></circle><circle r="7" cx="1125" cy="333" fill="hsl(297, 75%, 70%)" opacity="0.95"></circle><circle r="9.5" cx="774" cy="580" fill="hsl(248, 75%, 70%)" opacity="0.61"></circle><circle r="12.5" cx="1028" cy="438" fill="hsl(276, 75%, 70%)" opacity="0.21"></circle><circle r="14" cx="23" cy="63" fill="hsl(289, 75%, 70%)" opacity="0.34"></circle><circle r="7.5" cx="514" cy="512" fill="hsl(256, 75%, 70%)" opacity="0.84"></circle><circle r="8.5" cx="952" cy="392" fill="hsl(259, 75%, 70%)" opacity="0.46"></circle><circle r="9.5" cx="507" cy="549" fill="hsl(258, 75%, 70%)" opacity="0.62"></circle><circle r="10.5" cx="922" cy="662" fill="hsl(256, 75%, 70%)" opacity="0.89"></circle><circle r="14" cx="1141" cy="402" fill="hsl(302, 75%, 70%)" opacity="0.36"></circle><circle r="18" cx="1277" cy="771" fill="hsl(323, 75%, 70%)" opacity="0.14"></circle><circle r="9" cx="884" cy="228" fill="hsl(251, 75%, 70%)" opacity="0.92"></circle><circle r="9" cx="925" cy="361" fill="hsl(256, 75%, 70%)" opacity="0.78"></circle><circle r="8.5" cx="1049" cy="175" fill="hsl(278, 75%, 70%)" opacity="0.94"></circle><circle r="9.5" cx="496" cy="25" fill="hsl(249, 75%, 70%)" opacity="0.76"></circle><circle r="10" cx="606" cy="631" fill="hsl(252, 75%, 70%)" opacity="0.50"></circle><circle r="10" cx="660" cy="168" fill="hsl(245, 75%, 70%)" opacity="0.16"></circle><circle r="10.5" cx="471" cy="153" fill="hsl(258, 75%, 70%)" opacity="0.77"></circle><circle r="16.5" cx="299" cy="745" fill="hsl(288, 75%, 70%)" opacity="0.79"></circle><circle r="8" cx="337" cy="60" fill="hsl(273, 75%, 70%)" opacity="0.98"></circle><circle r="9" cx="462" cy="252" fill="hsl(262, 75%, 70%)" opacity="0.36"></circle><circle r="7" cx="126" cy="14" fill="hsl(273, 75%, 70%)" opacity="0.97"></circle><circle r="15.5" cx="1354" cy="434" fill="hsl(326, 75%, 70%)" opacity="1.00"></circle><circle r="8.5" cx="770" cy="394" fill="hsl(248, 75%, 70%)" opacity="0.51"></circle><circle r="13" cx="507" cy="99" fill="hsl(252, 75%, 70%)" opacity="0.76"></circle><circle r="11" cx="902" cy="591" fill="hsl(253, 75%, 70%)" opacity="0.18"></circle><circle r="6.5" cx="162" cy="55" fill="hsl(286, 75%, 70%)" opacity="0.70"></circle><circle r="12.5" cx="25" cy="199" fill="hsl(325, 75%, 70%)" opacity="0.57"></circle><circle r="11.5" cx="805" cy="360" fill="hsl(248, 75%, 70%)" opacity="0.61"></circle><circle r="10.5" cx="547" cy="198" fill="hsl(255, 75%, 70%)" opacity="0.24"></circle><circle r="17.5" cx="1279" cy="178" fill="hsl(324, 75%, 70%)" opacity="0.27"></circle><circle r="10" cx="100" cy="128" fill="hsl(309, 75%, 70%)" opacity="0.71"></circle><circle r="12" cx="741" cy="274" fill="hsl(249, 75%, 70%)" opacity="0.65"></circle><circle r="16.5" cx="1266" cy="294" fill="hsl(320, 75%, 70%)" opacity="0.22"></circle><circle r="12" cx="1028" cy="342" fill="hsl(276, 75%, 70%)" opacity="0.24"></circle><circle r="8.5" cx="908" cy="23" fill="hsl(224, 75%, 70%)" opacity="0.56"></circle><circle r="20" cx="88" cy="504" fill="hsl(323, 75%, 70%)" opacity="0.87"></circle><circle r="10.5" cx="418" cy="76" fill="hsl(266, 75%, 70%)" opacity="0.70"></circle><circle r="11" cx="473" cy="420" fill="hsl(260, 75%, 70%)" opacity="0.73"></circle><circle r="17" cx="1223" cy="368" fill="hsl(318, 75%, 70%)" opacity="0.73"></circle><circle r="13" cx="1206" cy="655" fill="hsl(314, 75%, 70%)" opacity="0.85"></circle><circle r="12.5" cx="1002" cy="517" fill="hsl(271, 75%, 70%)" opacity="0.79"></circle><circle r="8" cx="125" cy="45" fill="hsl(288, 75%, 70%)" opacity="0.70"></circle><circle r="8.5" cx="640" cy="477" fill="hsl(251, 75%, 70%)" opacity="0.83"></circle><circle r="8" cx="651" cy="431" fill="hsl(251, 75%, 70%)" opacity="0.97"></circle><circle r="7.5" cx="735" cy="507" fill="hsl(249, 75%, 70%)" opacity="0.65"></circle><circle r="7.5" cx="559" cy="291" fill="hsl(254, 75%, 70%)" opacity="0.48"></circle><circle r="12" cx="514" cy="688" fill="hsl(256, 75%, 70%)" opacity="0.77"></circle><circle r="10" cx="703" cy="367" fill="hsl(249, 75%, 70%)" opacity="0.69"></circle><circle r="8.5" cx="167" cy="25" fill="hsl(279, 75%, 70%)" opacity="0.38"></circle><circle r="10" cx="491" cy="616" fill="hsl(258, 75%, 70%)" opacity="0.56"></circle><circle r="11.5" cx="1367" cy="320" fill="hsl(326, 75%, 70%)" opacity="0.91"></circle><circle r="13" cx="1400" cy="25" fill="hsl(297, 75%, 70%)" opacity="0.18"></circle><circle r="8.5" cx="814" cy="603" fill="hsl(248, 75%, 70%)" opacity="0.41"></circle><circle r="12.5" cx="117" cy="205" fill="hsl(319, 75%, 70%)" opacity="0.40"></circle><circle r="7.5" cx="551" cy="742" fill="hsl(255, 75%, 70%)" opacity="0.59"></circle><circle r="9" cx="429" cy="241" fill="hsl(265, 75%, 70%)" opacity="0.37"></circle><circle r="16" cx="23" cy="367" fill="hsl(325, 75%, 70%)" opacity="0.73"></circle><circle r="18" cx="1294" cy="567" fill="hsl(324, 75%, 70%)" opacity="0.82"></circle><circle r="14.5" cx="75" cy="224" fill="hsl(323, 75%, 70%)" opacity="0.43"></circle><circle r="22.5" cx="372" cy="747" fill="hsl(275, 75%, 70%)" opacity="0.66"></circle><circle r="7.5" cx="976" cy="58" fill="hsl(238, 75%, 70%)" opacity="0.12"></circle><circle r="8.5" cx="792" cy="651" fill="hsl(248, 75%, 70%)" opacity="0.28"></circle><circle r="11" cx="759" cy="335" fill="hsl(248, 75%, 70%)" opacity="0.78"></circle><circle r="10" cx="1129" cy="782" fill="hsl(297, 75%, 70%)" opacity="0.14"></circle><circle r="15" cx="167" cy="615" fill="hsl(313, 75%, 70%)" opacity="0.30"></circle><circle r="14.5" cx="20" cy="585" fill="hsl(325, 75%, 70%)" opacity="0.67"></circle><circle r="8.5" cx="578" cy="22" fill="hsl(235, 75%, 70%)" opacity="0.36"></circle><circle r="15" cx="383" cy="616" fill="hsl(271, 75%, 70%)" opacity="0.84"></circle><circle r="9.5" cx="731" cy="771" fill="hsl(249, 75%, 70%)" opacity="0.77"></circle><circle r="10.5" cx="560" cy="491" fill="hsl(254, 75%, 70%)" opacity="0.37"></circle><circle r="11.5" cx="1165" cy="29" fill="hsl(288, 75%, 70%)" opacity="0.21"></circle><circle r="11" cx="1374" cy="484" fill="hsl(326, 75%, 70%)" opacity="0.62"></circle><circle r="13.5" cx="171" cy="198" fill="hsl(313, 75%, 70%)" opacity="0.50"></circle><circle r="9" cx="1039" cy="492" fill="hsl(276, 75%, 70%)" opacity="0.72"></circle><circle r="12.5" cx="127" cy="410" fill="hsl(319, 75%, 70%)" opacity="0.84"></circle><circle r="10.5" cx="366" cy="538" fill="hsl(275, 75%, 70%)" opacity="0.35"></circle><circle r="9" cx="1154" cy="726" fill="hsl(302, 75%, 70%)" opacity="0.49"></circle><circle r="7.5" cx="618" cy="432" fill="hsl(252, 75%, 70%)" opacity="0.52"></circle><circle r="5.5" cx="987" cy="14" fill="hsl(240, 75%, 70%)" opacity="0.76"></circle><circle r="15" cx="244" cy="328" fill="hsl(301, 75%, 70%)" opacity="0.40"></circle><circle r="8" cx="612" cy="57" fill="hsl(232, 75%, 70%)" opacity="0.31"></circle><circle r="9.5" cx="584" cy="593" fill="hsl(253, 75%, 70%)" opacity="0.82"></circle><circle r="8.5" cx="741" cy="545" fill="hsl(249, 75%, 70%)" opacity="0.51"></circle><circle r="9" cx="940" cy="135" fill="hsl(248, 75%, 70%)" opacity="0.91"></circle><circle r="7.5" cx="675" cy="488" fill="hsl(250, 75%, 70%)" opacity="0.15"></circle><circle r="7.5" cx="1011" cy="784" fill="hsl(271, 75%, 70%)" opacity="0.89"></circle><circle r="8.5" cx="220" cy="720" fill="hsl(305, 75%, 70%)" opacity="0.54"></circle><circle r="13.5" cx="52" cy="121" fill="hsl(311, 75%, 70%)" opacity="0.61"></circle><circle r="12" cx="168" cy="88" fill="hsl(293, 75%, 70%)" opacity="0.88"></circle><circle r="11" cx="1098" cy="658" fill="hsl(291, 75%, 70%)" opacity="0.92"></circle><circle r="10" cx="248" cy="743" fill="hsl(297, 75%, 70%)" opacity="0.41"></circle><circle r="13" cx="394" cy="445" fill="hsl(271, 75%, 70%)" opacity="0.69"></circle><circle r="13.5" cx="189" cy="524" fill="hsl(309, 75%, 70%)" opacity="0.87"></circle><circle r="7.5" cx="604" cy="107" fill="hsl(236, 75%, 70%)" opacity="0.16"></circle><circle r="22" cx="122" cy="291" fill="hsl(319, 75%, 70%)" opacity="0.15"></circle><circle r="18" cx="1215" cy="768" fill="hsl(314, 75%, 70%)" opacity="0.91"></circle><circle r="11" cx="511" cy="468" fill="hsl(258, 75%, 70%)" opacity="0.53"></circle><circle r="8.5" cx="82" cy="751" fill="hsl(323, 75%, 70%)" opacity="0.71"></circle><circle r="9.5" cx="423" cy="173" fill="hsl(265, 75%, 70%)" opacity="1.00"></circle><circle r="7" cx="947" cy="170" fill="hsl(253, 75%, 70%)" opacity="0.64"></circle><circle r="18.5" cx="1202" cy="423" fill="hsl(314, 75%, 70%)" opacity="0.60"></circle><circle r="8.5" cx="1084" cy="219" fill="hsl(286, 75%, 70%)" opacity="0.74"></circle><circle r="8.5" cx="1101" cy="51" fill="hsl(275, 75%, 70%)" opacity="0.81"></circle><circle r="13" cx="357" cy="408" fill="hsl(275, 75%, 70%)" opacity="0.27"></circle><circle r="12.5" cx="1403" cy="504" fill="hsl(324, 75%, 70%)" opacity="0.65"></circle><circle r="11.5" cx="534" cy="413" fill="hsl(255, 75%, 70%)" opacity="0.13"></circle><circle r="9" cx="51" cy="19" fill="hsl(273, 75%, 70%)" opacity="0.86"></circle><circle r="11.5" cx="586" cy="771" fill="hsl(253, 75%, 70%)" opacity="0.86"></circle><circle r="13" cx="1380" cy="285" fill="hsl(325, 75%, 70%)" opacity="0.94"></circle><circle r="14.5" cx="224" cy="71" fill="hsl(288, 75%, 70%)" opacity="0.96"></circle><circle r="16" cx="198" cy="345" fill="hsl(309, 75%, 70%)" opacity="0.36"></circle><circle r="16.5" cx="1090" cy="544" fill="hsl(291, 75%, 70%)" opacity="0.75"></circle><circle r="7" cx="1136" cy="305" fill="hsl(302, 75%, 70%)" opacity="0.25"></circle><circle r="13" cx="1402" cy="236" fill="hsl(324, 75%, 70%)" opacity="0.21"></circle><circle r="13" cx="178" cy="140" fill="hsl(305, 75%, 70%)" opacity="0.41"></circle><circle r="7.5" cx="1105" cy="750" fill="hsl(291, 75%, 70%)" opacity="0.40"></circle><circle r="10.5" cx="1162" cy="652" fill="hsl(306, 75%, 70%)" opacity="0.12"></circle><circle r="10.5" cx="537" cy="47" fill="hsl(242, 75%, 70%)" opacity="0.74"></circle><circle r="11" cx="1015" cy="633" fill="hsl(271, 75%, 70%)" opacity="0.62"></circle><circle r="16.5" cx="1216" cy="316" fill="hsl(314, 75%, 70%)" opacity="0.14"></circle><circle r="9" cx="815" cy="491" fill="hsl(248, 75%, 70%)" opacity="0.37"></circle><circle r="10.5" cx="271" cy="483" fill="hsl(292, 75%, 70%)" opacity="0.34"></circle><circle r="6.5" cx="956" cy="325" fill="hsl(262, 75%, 70%)" opacity="0.46"></circle><circle r="7" cx="802" cy="21" fill="hsl(217, 75%, 70%)" opacity="0.33"></circle><circle r="9" cx="623" cy="734" fill="hsl(251, 75%, 70%)" opacity="0.39"></circle><circle r="7.5" cx="773" cy="777" fill="hsl(248, 75%, 70%)" opacity="0.10"></circle><circle r="14.5" cx="252" cy="588" fill="hsl(297, 75%, 70%)" opacity="0.48"></circle><circle r="15" cx="1358" cy="600" fill="hsl(326, 75%, 70%)" opacity="0.13"></circle><circle r="14.5" cx="1400" cy="418" fill="hsl(325, 75%, 70%)" opacity="0.81"></circle><circle r="10" cx="180" cy="576" fill="hsl(309, 75%, 70%)" opacity="0.16"></circle><circle r="11.5" cx="703" cy="314" fill="hsl(249, 75%, 70%)" opacity="0.71"></circle><circle r="18" cx="1253" cy="687" fill="hsl(320, 75%, 70%)" opacity="0.15"></circle><circle r="19.5" cx="1207" cy="487" fill="hsl(314, 75%, 70%)" opacity="0.69"></circle><circle r="9" cx="640" cy="216" fill="hsl(251, 75%, 70%)" opacity="0.87"></circle><circle r="8.5" cx="483" cy="298" fill="hsl(260, 75%, 70%)" opacity="0.47"></circle><circle r="9" cx="1090" cy="457" fill="hsl(291, 75%, 70%)" opacity="0.12"></circle><circle r="10" cx="916" cy="708" fill="hsl(256, 75%, 70%)" opacity="0.35"></circle><circle r="8.5" cx="642" cy="126" fill="hsl(237, 75%, 70%)" opacity="0.48"></circle><circle r="16" cx="1276" cy="469" fill="hsl(323, 75%, 70%)" opacity="0.27"></circle><circle r="6" cx="567" cy="710" fill="hsl(254, 75%, 70%)" opacity="0.86"></circle><circle r="10.5" cx="861" cy="48" fill="hsl(220, 75%, 70%)" opacity="0.70"></circle><circle r="14.5" cx="1287" cy="645" fill="hsl(323, 75%, 70%)" opacity="0.74"></circle><circle r="10" cx="1147" cy="360" fill="hsl(302, 75%, 70%)" opacity="0.24"></circle><circle r="10.5" cx="318" cy="453" fill="hsl(283, 75%, 70%)" opacity="0.74"></circle><circle r="14" cx="226" cy="122" fill="hsl(296, 75%, 70%)" opacity="0.40"></circle><circle r="9" cx="893" cy="380" fill="hsl(253, 75%, 70%)" opacity="0.15"></circle><circle r="9.5" cx="684" cy="617" fill="hsl(250, 75%, 70%)" opacity="0.18"></circle><circle r="14" cx="1329" cy="634" fill="hsl(325, 75%, 70%)" opacity="0.15"></circle><circle r="16.5" cx="1332" cy="755" fill="hsl(325, 75%, 70%)" opacity="0.51"></circle><circle r="12" cx="1090" cy="91" fill="hsl(282, 75%, 70%)" opacity="0.56"></circle><circle r="19" cx="30" cy="521" fill="hsl(325, 75%, 70%)" opacity="0.36"></circle><circle r="8.5" cx="791" cy="69" fill="hsl(220, 75%, 70%)" opacity="0.81"></circle><circle r="10" cx="388" cy="153" fill="hsl(272, 75%, 70%)" opacity="0.38"></circle><circle r="11.5" cx="804" cy="719" fill="hsl(248, 75%, 70%)" opacity="0.57"></circle><circle r="11.5" cx="377" cy="270" fill="hsl(275, 75%, 70%)" opacity="0.90"></circle><circle r="6.5" cx="357" cy="90" fill="hsl(274, 75%, 70%)" opacity="0.30"></circle><circle r="13" cx="1223" cy="88" fill="hsl(310, 75%, 70%)" opacity="0.25"></circle><circle r="7.5" cx="1016" cy="37" fill="hsl(247, 75%, 70%)" opacity="0.54"></circle><circle r="14" cx="337" cy="645" fill="hsl(279, 75%, 70%)" opacity="0.18"></circle><circle r="14.5" cx="282" cy="236" fill="hsl(292, 75%, 70%)" opacity="0.85"></circle><circle r="20" cx="135" cy="542" fill="hsl(316, 75%, 70%)" opacity="0.60"></circle><circle r="10" cx="849" cy="447" fill="hsl(250, 75%, 70%)" opacity="0.19"></circle><circle r="7.5" cx="1050" cy="740" fill="hsl(281, 75%, 70%)" opacity="0.74"></circle><circle r="11.5" cx="755" cy="195" fill="hsl(249, 75%, 70%)" opacity="0.54"></circle><circle r="5.5" cx="653" cy="46" fill="hsl(227, 75%, 70%)" opacity="0.12"></circle><circle r="15" cx="301" cy="308" fill="hsl(288, 75%, 70%)" opacity="0.87"></circle><circle r="11.5" cx="446" cy="31" fill="hsl(256, 75%, 70%)" opacity="0.68"></circle><circle r="8" cx="693" cy="27" fill="hsl(221, 75%, 70%)" opacity="0.67"></circle><circle r="16" cx="1327" cy="480" fill="hsl(325, 75%, 70%)" opacity="0.45"></circle><circle r="17" cx="1252" cy="604" fill="hsl(320, 75%, 70%)" opacity="0.31"></circle><circle r="10.5" cx="911" cy="762" fill="hsl(253, 75%, 70%)" opacity="0.33"></circle><circle r="11.5" cx="362" cy="485" fill="hsl(275, 75%, 70%)" opacity="0.39"></circle><circle r="12.5" cx="1159" cy="86" fill="hsl(297, 75%, 70%)" opacity="0.14"></circle><circle r="10" cx="1166" cy="328" fill="hsl(306, 75%, 70%)" opacity="0.34"></circle><circle r="8" cx="612" cy="252" fill="hsl(252, 75%, 70%)" opacity="0.53"></circle><circle r="11.5" cx="852" cy="688" fill="hsl(250, 75%, 70%)" opacity="0.70"></circle><circle r="8" cx="830" cy="566" fill="hsl(249, 75%, 70%)" opacity="0.85"></circle><circle r="18.5" cx="34" cy="647" fill="hsl(325, 75%, 70%)" opacity="0.37"></circle><circle r="6" cx="751" cy="467" fill="hsl(249, 75%, 70%)" opacity="0.86"></circle><circle r="13" cx="1198" cy="54" fill="hsl(298, 75%, 70%)" opacity="0.56"></circle><circle r="10.5" cx="913" cy="477" fill="hsl(256, 75%, 70%)" opacity="0.34"></circle><circle r="6.5" cx="1245" cy="131" fill="hsl(320, 75%, 70%)" opacity="0.28"></circle><circle r="14" cx="84" cy="682" fill="hsl(323, 75%, 70%)" opacity="0.91"></circle><circle r="6" cx="659" cy="515" fill="hsl(251, 75%, 70%)" opacity="0.18"></circle><circle r="8" cx="78" cy="48" fill="hsl(289, 75%, 70%)" opacity="0.71"></circle><circle r="16" cx="1364" cy="194" fill="hsl(326, 75%, 70%)" opacity="0.19"></circle><circle r="10.5" cx="493" cy="370" fill="hsl(258, 75%, 70%)" opacity="0.28"></circle><circle r="13.5" cx="285" cy="635" fill="hsl(292, 75%, 70%)" opacity="0.24"></circle><circle r="10" cx="536" cy="352" fill="hsl(255, 75%, 70%)" opacity="0.24"></circle><circle r="11" cx="1166" cy="289" fill="hsl(306, 75%, 70%)" opacity="0.37"></circle><circle r="12.5" cx="1403" cy="148" fill="hsl(324, 75%, 70%)" opacity="0.21"></circle><circle r="9.5" cx="798" cy="433" fill="hsl(248, 75%, 70%)" opacity="0.75"></circle><circle r="9" cx="1049" cy="56" fill="hsl(262, 75%, 70%)" opacity="0.61"></circle><circle r="10.5" cx="129" cy="669" fill="hsl(319, 75%, 70%)" opacity="0.61"></circle><circle r="11" cx="910" cy="428" fill="hsl(253, 75%, 70%)" opacity="0.95"></circle><circle r="7" cx="769" cy="516" fill="hsl(248, 75%, 70%)" opacity="0.88"></circle><circle r="7.5" cx="526" cy="757" fill="hsl(256, 75%, 70%)" opacity="0.93"></circle><circle r="11" cx="812" cy="190" fill="hsl(248, 75%, 70%)" opacity="0.49"></circle><circle r="13" cx="24" cy="244" fill="hsl(325, 75%, 70%)" opacity="0.14"></circle><circle r="8" cx="389" cy="113" fill="hsl(272, 75%, 70%)" opacity="0.98"></circle><circle r="14" cx="1093" cy="143" fill="hsl(288, 75%, 70%)" opacity="0.53"></circle><circle r="8.5" cx="127" cy="75" fill="hsl(295, 75%, 70%)" opacity="0.13"></circle><circle r="5.5" cx="712" cy="421" fill="hsl(249, 75%, 70%)" opacity="0.52"></circle><circle r="10.5" cx="919" cy="89" fill="hsl(231, 75%, 70%)" opacity="0.95"></circle><circle r="7.5" cx="685" cy="571" fill="hsl(250, 75%, 70%)" opacity="0.45"></circle><circle r="8" cx="627" cy="527" fill="hsl(251, 75%, 70%)" opacity="0.91"></circle><circle r="10" cx="1035" cy="297" fill="hsl(276, 75%, 70%)" opacity="0.96"></circle><circle r="7.5" cx="681" cy="410" fill="hsl(250, 75%, 70%)" opacity="0.73"></circle><circle r="10.5" cx="325" cy="541" fill="hsl(283, 75%, 70%)" opacity="0.74"></circle><circle r="8" cx="412" cy="297" fill="hsl(268, 75%, 70%)" opacity="0.45"></circle><circle r="12" cx="397" cy="379" fill="hsl(271, 75%, 70%)" opacity="0.75"></circle><circle r="17" cx="266" cy="178" fill="hsl(297, 75%, 70%)" opacity="0.85"></circle><circle r="6.5" cx="805" cy="775" fill="hsl(248, 75%, 70%)" opacity="0.24"></circle><circle r="10.5" cx="1105" cy="493" fill="hsl(291, 75%, 70%)" opacity="0.19"></circle><circle r="7.5" cx="473" cy="552" fill="hsl(260, 75%, 70%)" opacity="0.18"></circle><circle r="10.5" cx="708" cy="730" fill="hsl(249, 75%, 70%)" opacity="0.75"></circle><circle r="9" cx="462" cy="92" fill="hsl(260, 75%, 70%)" opacity="0.52"></circle><circle r="8.5" cx="1010" cy="273" fill="hsl(271, 75%, 70%)" opacity="0.37"></circle><circle r="7" cx="740" cy="415" fill="hsl(249, 75%, 70%)" opacity="0.60"></circle><circle r="11" cx="545" cy="571" fill="hsl(255, 75%, 70%)" opacity="0.65"></circle><circle r="16" cx="78" cy="441" fill="hsl(323, 75%, 70%)" opacity="0.51"></circle><circle r="8.5" cx="525" cy="634" fill="hsl(256, 75%, 70%)" opacity="0.42"></circle><circle r="11" cx="994" cy="98" fill="hsl(249, 75%, 70%)" opacity="0.79"></circle><circle r="7.5" cx="1059" cy="16" fill="hsl(257, 75%, 70%)" opacity="0.47"></circle><circle r="15.5" cx="1247" cy="27" fill="hsl(301, 75%, 70%)" opacity="0.13"></circle><circle r="9" cx="953" cy="521" fill="hsl(259, 75%, 70%)" opacity="0.78"></circle><circle r="8" cx="15" cy="16" fill="hsl(273, 75%, 70%)" opacity="0.19"></circle><circle r="8" cx="977" cy="351" fill="hsl(262, 75%, 70%)" opacity="0.86"></circle><circle r="18" cx="25" cy="461" fill="hsl(325, 75%, 70%)" opacity="0.48"></circle><circle r="10" cx="864" cy="143" fill="hsl(236, 75%, 70%)" opacity="0.15"></circle><circle r="10" cx="1053" cy="238" fill="hsl(281, 75%, 70%)" opacity="0.49"></circle><circle r="9" cx="291" cy="527" fill="hsl(288, 75%, 70%)" opacity="0.57"></circle><circle r="12.5" cx="1075" cy="418" fill="hsl(286, 75%, 70%)" opacity="0.22"></circle><circle r="11" cx="957" cy="776" fill="hsl(262, 75%, 70%)" opacity="0.74"></circle><circle r="15.5" cx="294" cy="408" fill="hsl(288, 75%, 70%)" opacity="0.20"></circle><circle r="15" cx="1208" cy="707" fill="hsl(314, 75%, 70%)" opacity="0.93"></circle><circle r="18" cx="1276" cy="233" fill="hsl(323, 75%, 70%)" opacity="0.69"></circle><circle r="18" cx="175" cy="475" fill="hsl(313, 75%, 70%)" opacity="0.28"></circle><circle r="10" cx="1097" cy="260" fill="hsl(291, 75%, 70%)" opacity="0.74"></circle><circle r="10.5" cx="693" cy="683" fill="hsl(249, 75%, 70%)" opacity="0.69"></circle><circle r="9" cx="751" cy="662" fill="hsl(249, 75%, 70%)" opacity="0.15"></circle><circle r="11" cx="1058" cy="643" fill="hsl(281, 75%, 70%)" opacity="0.26"></circle><circle r="13.5" cx="391" cy="211" fill="hsl(271, 75%, 70%)" opacity="0.33"></circle><circle r="6" cx="1064" cy="715" fill="hsl(281, 75%, 70%)" opacity="0.59"></circle><circle r="7" cx="1120" cy="204" fill="hsl(297, 75%, 70%)" opacity="0.11"></circle><circle r="10" cx="346" cy="127" fill="hsl(279, 75%, 70%)" opacity="0.39"></circle><circle r="12" cx="449" cy="730" fill="hsl(262, 75%, 70%)" opacity="0.86"></circle><circle r="15" cx="417" cy="670" fill="hsl(268, 75%, 70%)" opacity="0.95"></circle><circle r="12.5" cx="1188" cy="126" fill="hsl(309, 75%, 70%)" opacity="0.36"></circle><circle r="10.5" cx="407" cy="541" fill="hsl(268, 75%, 70%)" opacity="0.97"></circle><circle r="6" cx="636" cy="16" fill="hsl(228, 75%, 70%)" opacity="0.90"></circle></svg>